<svg xmlns="http://www.w3.org/2000/svg" xmlns:xlink="http://www.w3.org/1999/xlink" contentStyleType="text/css" data-diagram-type="STATE" height="242px" preserveAspectRatio="none" style="width:236px;height:242px;background:#FFFFFF;" version="1.1" viewBox="0 0 236 242" width="236px" zoomAndPan="magnify"><defs/><g><ellipse cx="70.5" cy="16" fill="#222222" rx="10" ry="10" style="stroke:#222222;stroke-width:1;"/><g id="State1"><rect fill="#F1F1F1" height="67.7969" rx="12.5" ry="12.5" style="stroke:#181818;stroke-width:0.5;" width="127.3848" x="7" y="86"/><line style="stroke:#181818;stroke-width:0.5;" x1="7" x2="134.3848" y1="113.6094" y2="113.6094"/><text fill="#000000" font-family="sans-serif" font-size="14" lengthAdjust="spacing" textLength="40.4756" x="50.4546" y="105.5332">State1</text><text fill="#000000" font-family="sans-serif" font-size="12" lengthAdjust="spacing" textLength="73.3594" x="12" y="131.0664">this is a string</text><text fill="#000000" font-family="sans-serif" font-size="12" lengthAdjust="spacing" textLength="107.3848" x="12" y="146.1602">this is another string</text></g><ellipse cx="134.5" cy="225" fill="transparent" rx="11" ry="11" style="stroke:#222222;stroke-width:1;"/><ellipse cx="134.5" cy="225" fill="#222222" rx="6" ry="6" style="stroke:#222222;stroke-width:1;"/><g id="State2"><rect fill="#F1F1F1" height="50" rx="12.5" ry="12.5" style="stroke:#181818;stroke-width:0.5;" width="60.4756" x="169.5" y="95"/><line style="stroke:#181818;stroke-width:0.5;" x1="169.5" x2="229.9756" y1="122.6094" y2="122.6094"/><text fill="#000000" font-family="sans-serif" font-size="14" lengthAdjust="spacing" textLength="40.4756" x="179.5" y="114.5332">State2</text></g><!--link *start* to State1--><g id="link_*start*_State1"><path d="M70.5,26.05 C70.5,39.31 70.5,58.72 70.5,79.62 " fill="transparent" id="*start*-to-State1" style="stroke:#181818;stroke-width:1;"/><polygon fill="#181818" points="70.5,85.62,74.5,76.62,70.5,80.62,66.5,76.62,70.5,85.62" style="stroke:#181818;stroke-width:1;"/></g><!--link State1 to *end*--><g id="link_State1_*end*"><path d="M91.1,154.16 C104.4,175.56 117.5651,196.7326 125.8851,210.1326 " fill="transparent" id="State1-to-*end*" style="stroke:#181818;stroke-width:1;"/><polygon fill="#181818" points="129.05,215.23,127.7008,205.474,126.4126,210.9822,120.9044,209.6939,129.05,215.23" style="stroke:#181818;stroke-width:1;"/></g><!--link State1 to State2--><g id="link_State1_State2"><path d="M134.24,120 C145.97,120 151.7,120 163.42,120 " fill="transparent" id="State1-to-State2" style="stroke:#181818;stroke-width:1;"/><polygon fill="#181818" points="169.42,120,160.42,116,164.42,120,160.42,124,169.42,120" style="stroke:#181818;stroke-width:1;"/></g><!--link State2 to *end*--><g id="link_State2_*end*"><path d="M184.26,145.15 C170.15,167.51 153.1321,194.4759 143.3821,209.9259 " fill="transparent" id="State2-to-*end*" style="stroke:#181818;stroke-width:1;"/><polygon fill="#181818" points="140.18,215,148.3659,209.5236,142.8484,210.7716,141.6004,205.2541,140.18,215" style="stroke:#181818;stroke-width:1;"/></g><!--SRC=[YzQALT3LjLC8BaaiIJNaWb1WaMYjM1ZNIg4a8xDO0OWI5OfBYZBpqh78vEMNPAGMeSd3J3Q221Z1J0O0]--></g></svg>